<?xml version="1.0" standalone="no"?>
<!DOCTYPE svg PUBLIC "-//W3C//DTD SVG 20010904//EN"
 "http://www.w3.org/TR/2001/REC-SVG-20010904/DTD/svg10.dtd">
<svg version="1.0" xmlns="http://www.w3.org/2000/svg"
 width="755.000000pt" height="755.000000pt" viewBox="0 0 755.000000 755.000000"
 preserveAspectRatio="xMidYMid meet">
<metadata>
Created by potrace 1.14, written by Peter Selinger 2001-2017
</metadata>
<g transform="translate(0.000000,755.000000) scale(0.100000,-0.100000)"
fill="#000000" stroke="none">
<path d="M1725 7304 c-479 -62 -911 -328 -1171 -722 -136 -205 -233 -452 -262
-664 -4 -29 -7 -150 -7 -268 1 -183 4 -230 22 -317 60 -280 200 -556 387 -762
42 -46 94 -99 116 -118 22 -19 37 -40 33 -46 -4 -6 -1 -7 7 -2 8 5 17 2 24 -6
8 -11 126 -98 153 -114 2 -1 -11 -41 -27 -90 -29 -86 -93 -319 -105 -380 -52
-283 -69 -478 -62 -715 15 -459 117 -853 326 -1255 296 -571 756 -1017 1335
-1295 414 -199 812 -289 1271 -290 275 0 463 21 702 80 519 126 981 381 1358
750 175 171 265 277 398 472 176 258 329 600 406 903 71 285 102 630 82 909
-21 282 -69 521 -156 776 -44 128 -46 136 -28 148 220 156 384 330 516 548 93
154 184 421 207 604 15 123 12 361 -5 477 -25 164 -80 333 -161 496 -115 228
-329 469 -546 614 -215 144 -447 234 -673 263 -151 19 -474 9 -591 -18 -556
-130 -1004 -527 -1194 -1060 l-38 -106 -268 0 -268 0 -9 29 c-91 288 -270 564
-494 761 -228 200 -538 346 -823 387 -87 13 -384 20 -455 11z"/>
</g>
</svg>
