<svg id="svg" xmlns="http://www.w3.org/2000/svg" xmlns:xlink="http://www.w3.org/1999/xlink" width="400" height="361.52897657213316" viewBox="0, 0, 400,361.52897657213316"><g id="svgg"><path id="path0" d="M101.928 10.145 C 43.574 19.222,16.849 89.418,54.520 134.665 C 59.346 140.462,70.429 150.432,72.047 150.432 C 72.257 150.432,71.882 151.819,71.213 153.514 C 51.945 202.319,64.732 261.421,102.831 299.656 C 130.706 327.630,159.485 339.368,200.247 339.389 C 231.330 339.405,251.892 333.782,273.983 319.225 C 328.520 283.286,351.377 218.741,331.125 157.865 C 329.196 152.065,329.018 151.187,329.697 150.807 C 343.198 143.252,357.620 123.732,362.299 106.684 C 375.883 57.185,339.471 9.609,288.039 9.656 C 254.073 9.687,225.286 29.745,214.831 60.666 L 213.414 64.858 201.079 64.783 L 188.744 64.707 187.184 60.344 C 174.727 25.492,138.895 4.395,101.928 10.145 M126.262 23.002 C 151.005 27.250,172.564 48.613,177.299 73.577 C 178.233 78.500,177.801 78.132,181.836 77.442 C 187.859 76.413,207.487 76.231,215.235 77.132 C 219.003 77.570,222.463 77.928,222.924 77.928 C 223.580 77.928,223.898 77.148,224.380 74.353 C 232.029 30.020,284.742 7.406,322.673 32.184 C 360.409 56.836,362.130 110.820,326.057 138.338 L 322.891 140.753 322.112 139.570 C 321.683 138.919,319.972 136.725,318.311 134.694 L 315.289 131.003 317.413 129.596 C 353.354 105.790,343.438 48.772,301.415 37.615 C 272.674 29.984,239.909 51.448,237.661 79.381 L 237.485 81.574 243.153 83.680 C 257.997 89.194,270.239 96.720,283.113 108.244 C 289.289 113.773,289.260 113.717,285.299 112.484 C 252.071 102.142,214.217 120.685,201.920 153.327 L 200.365 157.455 199.499 154.806 C 188.667 121.680,150.132 102.444,114.991 112.622 L 110.897 113.808 112.785 111.849 C 123.719 100.506,143.331 88.217,158.981 82.902 C 166.344 80.401,166.112 80.711,164.737 75.224 C 153.787 31.517,96.820 21.860,71.739 59.458 C 61.417 74.932,60.848 97.415,70.382 113.109 C 73.978 119.029,80.191 125.768,85.445 129.448 C 86.464 130.162,86.454 130.193,84.528 132.286 C 83.457 133.450,81.618 135.678,80.442 137.238 C 77.877 140.639,78.480 140.598,74.743 137.624 C 40.683 110.522,41.424 60.031,76.260 34.202 C 90.284 23.803,107.919 19.854,126.262 23.002 M121.332 49.040 C 133.192 51.187,143.938 59.284,148.998 69.887 C 150.707 73.468,150.740 73.387,146.979 74.946 C 127.712 82.930,105.719 99.640,93.156 115.843 L 91.867 117.505 88.093 113.920 C 60.510 87.719,83.807 42.245,121.332 49.040 M297.657 49.560 C 327.663 57.458,336.354 96.251,312.442 115.548 L 309.494 117.927 308.352 116.547 C 293.683 98.820,275.640 84.736,256.640 76.179 C 254.064 75.018,251.845 73.957,251.708 73.821 C 251.571 73.684,252.276 71.945,253.274 69.956 C 261.533 53.500,280.140 44.950,297.657 49.560 M125.592 124.168 C 120.991 159.451,120.802 196.350,125.061 227.801 C 125.967 234.485,126.288 234.004,121.697 232.829 C 83.459 223.050,67.387 175.509,91.481 143.455 C 99.768 132.430,114.240 123.295,125.711 121.848 C 125.814 121.836,125.760 122.879,125.592 124.168 M150.185 123.190 C 169.374 128.231,185.461 145.666,189.624 165.935 C 195.825 196.121,177.118 226.360,148.076 233.095 C 144.123 234.012,144.389 234.527,145.236 227.582 C 148.933 197.250,148.673 148.627,144.679 123.649 C 144.338 121.517,143.943 121.550,150.185 123.190 M257.225 122.935 C 256.828 124.674,255.106 140.979,254.400 149.692 C 253.415 161.855,253.579 199.539,254.668 211.097 C 255.553 220.496,256.763 230.676,257.238 232.735 C 257.963 235.873,241.926 229.749,234.279 223.968 C 196.396 195.330,207.182 134.680,252.229 123.035 C 257.789 121.597,257.530 121.602,257.225 122.935 M284.094 124.067 C 319.075 135.645,333.064 180.373,311.313 211.097 C 303.569 222.036,289.939 231.116,277.735 233.467 L 276.061 233.789 276.395 230.705 C 280.507 192.693,280.503 162.065,276.381 124.699 L 276.072 121.901 278.233 122.372 C 279.422 122.631,282.059 123.394,284.094 124.067 M204.816 207.891 C 209.122 216.408,216.671 225.409,224.314 231.140 C 226.404 232.707,228.269 234.110,228.459 234.257 C 228.649 234.405,216.136 234.466,200.652 234.394 L 172.501 234.263 175.646 231.875 C 186.161 223.893,194.352 213.316,198.650 202.170 L 200.493 197.390 201.532 200.421 C 202.104 202.088,203.581 205.450,204.816 207.891 M81.767 219.207 C 85.487 223.816,89.780 228.067,93.711 231.033 C 95.475 232.363,97.119 233.628,97.364 233.844 C 97.610 234.059,93.676 234.301,88.621 234.380 L 79.431 234.525 78.425 230.237 C 77.481 226.213,76.466 219.626,75.741 212.824 L 75.426 209.864 77.192 212.795 C 78.163 214.408,80.222 217.293,81.767 219.207 M323.947 215.906 C 323.580 219.388,322.125 228.011,321.180 232.306 L 320.800 234.032 311.594 234.279 C 306.532 234.414,302.545 234.405,302.736 234.257 C 302.927 234.110,304.789 232.710,306.874 231.146 C 311.592 227.608,318.580 220.345,321.789 215.644 C 323.125 213.686,324.248 212.084,324.284 212.084 C 324.320 212.084,324.168 213.804,323.947 215.906 M111.874 246.076 C 111.554 246.925,95.923 270.260,95.666 270.272 C 94.543 270.323,82.865 247.758,82.860 245.527 C 82.860 245.444,89.424 245.438,97.447 245.514 C 105.469 245.590,111.961 245.842,111.874 246.076 M166.024 247.719 C 150.644 298.351,148.716 304.349,148.262 302.991 C 148.006 302.228,143.875 289.007,139.081 273.613 L 130.366 245.623 148.513 245.623 L 166.661 245.623 166.024 247.719 M217.711 257.830 C 205.642 304.504,201.300 320.744,201.063 320.099 C 200.555 318.715,181.998 246.788,181.998 246.204 C 181.998 245.768,186.847 245.623,201.433 245.623 L 220.868 245.623 217.711 257.830 M271.758 246.979 C 271.512 247.725,267.508 260.654,262.859 275.709 C 258.210 290.764,254.251 303.249,254.060 303.452 C 253.769 303.762,236.186 247.084,236.235 245.993 C 236.244 245.789,244.341 245.623,254.228 245.623 L 272.205 245.623 271.758 246.979 M316.108 248.203 C 314.221 252.990,311.696 258.172,308.644 263.519 L 305.608 268.838 298.512 258.093 C 294.609 252.184,291.203 246.961,290.943 246.486 C 290.499 245.673,291.254 245.623,303.798 245.623 L 317.125 245.623 316.108 248.203 M130.182 281.794 C 135.123 297.754,139.077 310.902,138.969 311.011 C 137.446 312.534,114.920 294.071,106.237 284.183 L 102.633 280.079 111.817 266.302 C 116.867 258.724,121.044 252.581,121.099 252.650 C 121.153 252.718,125.241 265.833,130.182 281.794 M298.397 278.294 C 298.397 281.547,265.720 310.998,264.142 309.167 C 264.030 309.036,280.429 255.726,281.389 253.101 C 281.623 252.460,298.397 277.306,298.397 278.294 M245.841 317.460 C 246.412 319.712,212.614 328.192,210.700 326.277 C 210.521 326.099,222.856 277.997,227.697 259.998 C 227.943 259.082,243.656 308.847,245.841 317.460 M183.671 293.465 L 192.212 326.264 190.985 326.426 C 185.879 327.102,156.350 320.759,156.350 318.987 C 156.350 316.951,174.721 258.696,174.976 259.926 C 175.060 260.333,178.973 275.425,183.671 293.465 " stroke="none" fill="#ffffff" fill-rule="evenodd"></path></g></svg>